<svg id="Layer_1" data-name="Layer 1" xmlns="http://www.w3.org/2000/svg" viewBox="0 0 186.2 200"><defs><style>.cls-1{fill:#52c5ce;}.cls-2{fill:#71adaa;}.cls-3{fill:#fff;}</style></defs><title>ng-genetic</title><polygon class="cls-1" points="93.1 0 93.1 0 93.1 0 0 33.2 14.2 156.3 93.1 200 93.1 200 93.1 200 172 156.3 186.2 33.2 93.1 0"/><polygon class="cls-2" points="93.1 0 93.1 22.2 93.1 22.1 93.1 123.4 93.1 123.4 93.1 200 93.1 200 172 156.3 186.2 33.2 93.1 0"/><path class="cls-3" d="M93.12,128c1.46,3.37,2.45,6.56,4.22,9.57,4,6.79,11,12.35,19.26,17.3,7.47,4.45,15.37,8.67,22.89,13.19,11.66,7,21.47,14.95,26.27,24.89,1.39,2.88,2.28,5.84,3.52,9.08-4.46-.12-8.36-.18-12.24-.39a2.43,2.43,0,0,1-1.73-1.15c-2.37-9.55-10.12-17.37-20.73-24.06-8.1-5.11-16.82-9.75-25-14.68C99.37,155.64,90.3,149,85.7,140.51c-9.38-17.32-5.9-33.11,14.1-47,3.19-2.22,6.63-4.3,10.08-6.51l9.62,5.07L103,103.2l.5.62c1.92,0,3.84,0,5.77,0,9-.17,18.15-.39,27.32-.47a6.21,6.21,0,0,1,3.34,1.07,59.32,59.32,0,0,1,4.71,4.44c-1.81.06-2.94.13-4.07.13-11.35.06-22.62.09-33.79.18-2.6,0-5.2.17-7.78.37a2.68,2.68,0,0,0-1.72.87,23.87,23.87,0,0,0-3.64,11.74h61.59c.31-3.49-.87-6.76-2.63-9.95-4.77-8.63-14.26-14.81-25.18-20.36C113.26,84.58,99,77.57,89.76,67.47c-4.3-4.72-8.64-13-8.75-17.25C84.7,50.13,88.4,50,92.1,50a2.15,2.15,0,0,1,1.64,1.06c1.95,8.17,7.93,15,17.11,20.56,8.58,5.18,18,9.85,27.2,14.79,15.19,8.2,27.32,17.77,30.09,30.94,3.38,16.08-4.55,29.72-22.66,40.9-2.06,1.27-4.16,2.51-6.24,3.75-.3.18-.67.31-1.24.57l-9.67-5.15L144.07,147c-1.59-.13-2.36-.23-3.13-.24-8.58-.08-17.11-.27-25.58-.16-3.18,0-5.16-.62-6.66-2.31-.92-1-2.05-2-3.38-3.29,1.43,0,2.4-.11,3.38-.1,12.57.07,25.25.13,38,.27,2,0,3.28-.32,3.87-1.55,1.77-3.72,3.57-7.44,5.5-11.46Z" transform="translate(-31.9 -30)"/><path class="cls-3" d="M110.94,167.22l9.38,5.17L103,184.73l.53.68,3.17.07c10.22.23,20.51.51,30.87.64,2.35,0,3.79.47,4.78,1.83s2.11,2.49,3.46,4.06l-12.09-.29c-10.76-.26-21.44-.44-32-.83-2.67-.1-3.72.5-4.26,2-.71,1.92-1.65,3.79-2.24,5.72-.32,1-.89,1.45-2.61,1.37-3.4-.17-6.81-.21-10.4-.31C84.08,185.89,95.71,176,110.94,167.22Z" transform="translate(-31.9 -30)"/><path class="cls-3" d="M167.56,48c-2.52,14.08-14.07,24.74-30.12,34L128,77l17.24-12.34-.59-.56c-1.12,0-2.23,0-3.35,0-9.86.19-19.65.3-29.37.66-2.9.11-4.48-.52-5.66-2-.86-1.09-1.88-2.13-3.06-3.45l30-.67c4.82-.11,9.66-.26,14.51-.3,1.8,0,2.83-.38,3.28-1.5,1-2.38,1.87-4.76,3.07-7.1a3.63,3.63,0,0,1,2.41-1.37C160,48.09,163.56,48.09,167.56,48Z" transform="translate(-31.9 -30)"/></svg>